# xmcd
#
# Track frame offsets: 
#        150
#        11176
#        26927
#        44612
#        59204
#        73030
#        88827
#        107743
#        122880
#        139017
#        154504
#        168954
#        184890
#        195427
#
# Disc length: 2823 seconds
#
# Revision: 0
# Processed by: cddbd v1.5.2PL0 Copyright (c) Steve Scherf et al.
# Submitted via: ExactAudioCopy v0.99pb4
#
DISCID=ce0b050e
DTITLE=Nancy Apple - Outside The Lines
DYEAR=2000
DGENRE=Country
TTITLE0=Slide Me Some Sugar
TTITLE1=If Money's The Root Of All Evil (Wishful Drinkin')
TTITLE2=Fooled By The Heart
TTITLE3=My Exercise Program
TTITLE4=You're The Reason
TTITLE5=Why'd You Get So Gone
TTITLE6=Small Town Blues
TTITLE7=Bears In Them Woods
TTITLE8=Time For You (Duet With Jay Harrington)
TTITLE9=I'm Here To Collect
TTITLE10=Draw The Line
TTITLE11=Outside The Lines
TTITLE12=Shiri Shiri Naka Naka Jyoto Ne (Way Out Part-Japanese Tune)
TTITLE13=Truck Driver's Woman (Damn Near Live Cut)
EXTD=
EXTT0=
EXTT1=
EXTT2=
EXTT3=
EXTT4=
EXTT5=
EXTT6=
EXTT7=
EXTT8=
EXTT9=
EXTT10=
EXTT11=
EXTT12=
EXTT13=
PLAYORDER=
